<svg width="1600" height="690" viewBox="0 0 1600 690" fill="none" xmlns="http://www.w3.org/2000/svg">
<mask id="mask0_820_10709" style="mask-type:luminance" maskUnits="userSpaceOnUse" x="0" y="0" width="1759" height="698">
<rect width="1758.74" height="698" fill="white"/>
</mask>
<g mask="url(#mask0_820_10709)">
<g opacity="0.08">
<mask id="mask1_820_10709" style="mask-type:luminance" maskUnits="userSpaceOnUse" x="66" y="-709" width="2006" height="1889">
<path fill-rule="evenodd" clip-rule="evenodd" d="M66.127 269.523L1407.65 -708.802L2071.24 201.134L729.71 1179.46L66.127 269.523Z" fill="white"/>
</mask>
<g mask="url(#mask1_820_10709)">
<path fill-rule="evenodd" clip-rule="evenodd" d="M1681.16 -328.627C1676.84 -335.423 1667.96 -338.278 1657.41 -336.265L642.155 -142.843C633.972 -141.287 625.795 -137.007 619.131 -130.798C612.475 -124.589 608.124 -117.192 606.897 -109.972L453.928 785.727C453.051 790.864 453.839 795.554 456.207 799.282C460.524 806.077 469.403 808.93 479.956 806.924L1495.21 613.502C1503.4 611.941 1511.57 607.667 1518.23 601.454C1524.89 595.244 1529.24 587.85 1530.47 580.627L1683.44 -315.068C1684.32 -320.211 1683.53 -324.899 1681.16 -328.627ZM453.739 800.974C451.166 796.917 450.312 791.821 451.265 786.234L604.227 -109.461C605.567 -117.311 610.293 -125.351 617.533 -132.103C624.774 -138.852 633.66 -143.501 642.558 -145.197L1657.81 -338.619C1669.29 -340.803 1678.93 -337.7 1683.63 -330.315C1686.2 -326.259 1687.06 -321.164 1686.1 -315.574L1533.13 580.121C1531.8 587.97 1527.07 596.006 1519.83 602.756C1512.6 609.508 1503.71 614.155 1494.8 615.853L479.555 809.271C468.084 811.459 458.43 808.358 453.739 800.974Z" fill="#2B437B"/>
</g>
<path fill-rule="evenodd" clip-rule="evenodd" d="M1642.33 -308.215C1638.19 -314.736 1629.68 -317.541 1619.58 -315.726L631.906 -138.293C623.954 -136.868 615.968 -132.779 609.422 -126.784C602.875 -120.786 598.555 -113.602 597.251 -106.551L435.578 768.882C434.632 774.021 435.377 778.702 437.738 782.418C441.879 788.937 450.382 791.746 460.484 789.924L1448.16 612.499C1464.58 609.541 1480.13 595.307 1482.81 580.757L1644.48 -294.678C1645.44 -299.819 1644.69 -304.5 1642.33 -308.215ZM435.272 784.105C432.699 780.06 431.887 774.959 432.921 769.361L594.596 -106.072C596.013 -113.752 600.722 -121.578 607.85 -128.109C614.98 -134.64 623.678 -139.094 632.343 -140.651L1620.02 -318.08C1631.03 -320.06 1640.28 -317.003 1644.79 -309.905C1647.36 -305.852 1648.18 -300.754 1647.15 -295.155L1485.47 580.278C1482.55 596.13 1465.61 611.645 1447.72 614.858L460.048 792.287C449.047 794.264 439.782 791.208 435.272 784.105Z" fill="#2B437B"/>
<path fill-rule="evenodd" clip-rule="evenodd" d="M1603.5 -287.818C1599.53 -294.056 1591.4 -296.814 1581.75 -295.195L621.653 -133.753C605.711 -131.072 590.439 -117.338 587.607 -103.137L417.229 752.031C416.202 757.167 416.906 761.845 419.262 765.553C423.226 771.794 431.355 774.55 441.006 772.925L1401.1 611.492C1408.83 610.189 1416.62 606.29 1423.05 600.507C1429.49 594.724 1433.78 587.747 1435.15 580.87L1605.53 -274.3C1606.56 -279.435 1605.85 -284.111 1603.5 -287.818ZM416.796 767.239C414.225 763.191 413.455 758.089 414.575 752.483L584.955 -102.689C588.046 -118.194 604.72 -133.187 622.124 -136.114L1582.22 -297.555C1592.76 -299.326 1601.64 -296.314 1605.96 -289.501C1608.54 -285.455 1609.3 -280.352 1608.19 -274.743L1437.81 580.427C1436.31 587.938 1431.62 595.549 1424.59 601.863C1417.58 608.177 1409.07 612.435 1400.64 613.853L440.538 775.292C430.002 777.062 421.125 774.055 416.796 767.239Z" fill="#2B437B"/>
<path fill-rule="evenodd" clip-rule="evenodd" d="M1564.68 -267.416C1560.88 -273.381 1553.13 -276.084 1543.92 -274.651L611.404 -129.201C603.909 -128.03 596.307 -124.321 589.99 -118.75C583.678 -113.185 579.406 -106.421 577.97 -99.7136L398.877 735.198C397.778 740.336 398.434 745.004 400.784 748.702C404.573 754.668 412.329 757.372 421.534 755.938L1354.06 610.484C1369.52 608.07 1384.52 594.846 1387.49 581.001L1566.59 -253.911C1567.69 -259.047 1567.03 -263.715 1564.68 -267.416ZM398.319 750.384C395.745 746.339 395.024 741.226 396.232 735.607L575.321 -99.3009C576.897 -106.644 581.571 -114.043 588.479 -120.137C595.389 -126.231 603.71 -130.29 611.912 -131.572L1544.43 -277.02C1554.5 -278.592 1562.99 -275.632 1567.14 -269.103C1569.71 -265.053 1570.44 -259.946 1569.23 -254.323L1390.14 580.585C1386.88 595.738 1370.47 610.216 1353.55 612.854L421.028 758.301C410.953 759.873 402.467 756.918 398.319 750.384Z" fill="#2B437B"/>
<path fill-rule="evenodd" clip-rule="evenodd" d="M1525.86 -247.015C1522.24 -252.712 1514.85 -255.364 1506.09 -254.111L601.152 -124.654C593.892 -123.614 586.478 -120.093 580.28 -114.736C574.076 -109.377 569.835 -102.83 568.328 -96.2935L380.527 718.355C379.34 723.489 379.954 728.15 382.299 731.842C385.917 737.539 393.309 740.19 402.067 738.938L1307.01 609.482C1314.27 608.438 1321.68 604.919 1327.88 599.561C1334.08 594.205 1338.32 587.654 1339.83 581.116L1527.63 -233.528C1528.82 -238.662 1528.2 -243.325 1525.86 -247.015ZM379.833 733.53C377.262 729.477 376.589 724.366 377.885 718.729L565.69 -95.9149C567.343 -103.085 572.001 -110.272 578.8 -116.146C585.602 -122.023 593.733 -125.887 601.703 -127.028L1506.64 -256.483C1516.25 -257.86 1524.36 -254.951 1528.32 -248.703C1530.9 -244.653 1531.57 -239.535 1530.28 -233.905L1342.47 580.741C1340.82 587.916 1336.16 595.103 1329.36 600.974C1322.56 606.855 1314.43 610.719 1306.46 611.855L401.52 741.317C391.911 742.69 383.804 739.779 379.833 733.53Z" fill="#2B437B"/>
<path fill-rule="evenodd" clip-rule="evenodd" d="M1487.05 -226.63C1483.6 -232.056 1476.58 -234.653 1468.26 -233.577L590.896 -120.11C576.384 -118.233 561.932 -106.017 558.683 -92.878L362.17 701.513C360.902 706.637 361.465 711.302 363.805 714.987C367.252 720.417 374.276 723.009 382.593 721.935L1259.95 608.466C1266.99 607.559 1274.21 604.224 1280.29 599.084C1286.38 593.935 1290.6 587.598 1292.17 581.235L1488.68 -213.152C1489.95 -218.285 1489.39 -222.948 1487.05 -226.63ZM361.342 716.677C358.765 712.625 358.146 707.498 359.543 701.852L556.052 -92.534C559.626 -106.985 575.521 -120.423 591.484 -122.489L1468.85 -235.957C1477.99 -237.142 1485.72 -234.283 1489.51 -228.317C1492.09 -224.265 1492.71 -219.137 1491.32 -213.489L1294.8 580.895C1293.07 587.896 1288.43 594.871 1281.74 600.526C1275.04 606.186 1267.1 609.854 1259.37 610.849L382.006 724.318C372.857 725.503 365.132 722.646 361.342 716.677Z" fill="#2B437B"/>
<path fill-rule="evenodd" clip-rule="evenodd" d="M1448.24 -206.236C1444.92 -211.473 1438.42 -213.95 1430.43 -213.033L580.645 -115.558C573.844 -114.774 566.815 -111.633 560.845 -106.7C554.874 -101.768 550.685 -95.6417 549.043 -89.4481L343.82 684.677C342.459 689.814 342.972 694.469 345.309 698.145C348.636 703.382 355.136 705.858 363.128 704.942L1212.91 607.467C1226.95 605.856 1241.13 594.146 1244.51 581.358L1449.73 -192.764C1451.1 -197.898 1450.58 -202.558 1448.24 -206.236ZM342.846 699.831C340.268 695.78 339.7 690.642 341.199 684.978L546.422 -89.1451C548.234 -95.979 552.855 -102.735 559.441 -108.173C566.024 -113.613 573.781 -117.081 581.278 -117.942L1431.06 -215.419C1439.88 -216.43 1447.04 -213.699 1450.71 -207.923C1453.29 -203.864 1453.86 -198.729 1452.35 -193.065L1247.13 581.059C1243.39 595.163 1227.76 608.077 1212.28 609.857L362.498 707.334C353.677 708.345 346.514 705.612 342.846 699.831Z" fill="#2B437B"/>
<path fill-rule="evenodd" clip-rule="evenodd" d="M1409.45 -185.859C1406.29 -190.83 1400.15 -193.249 1392.59 -192.503L570.391 -111.013C563.821 -110.366 556.98 -107.409 551.123 -102.686C545.269 -97.9662 541.106 -92.0529 539.394 -86.0275L325.468 667.829C324.009 672.971 324.471 677.626 326.805 681.301C329.962 686.271 336.107 688.691 343.66 687.945L1165.86 606.459C1172.43 605.804 1179.28 602.847 1185.13 598.127C1190.98 593.412 1195.15 587.498 1196.86 581.473L1410.78 -172.388C1412.25 -177.526 1411.79 -182.187 1409.45 -185.859ZM324.341 682.992C321.758 678.927 321.25 673.773 322.862 668.092L536.788 -85.7674C538.679 -92.4311 543.286 -98.9744 549.761 -104.193C556.238 -109.415 563.806 -112.686 571.07 -113.404L1393.27 -194.89C1401.63 -195.72 1408.42 -193.038 1411.92 -187.547C1414.49 -183.482 1415.01 -178.331 1413.4 -172.645L1199.46 581.214C1197.58 587.877 1192.97 594.42 1186.5 599.641C1180.02 604.857 1172.45 608.132 1165.19 608.847L342.982 690.336C334.624 691.164 327.834 688.486 324.341 682.992Z" fill="#2B437B"/>
<path fill-rule="evenodd" clip-rule="evenodd" d="M1370.66 -165.479C1367.68 -170.185 1361.88 -172.546 1354.76 -171.959L560.132 -106.463C553.796 -105.943 547.146 -103.172 541.408 -98.6635C535.67 -94.1576 531.529 -88.4511 529.755 -82.6001L307.117 650.999C305.576 656.067 305.996 660.853 308.294 664.471C311.285 669.173 317.082 671.536 324.197 670.949L1118.82 605.456C1125.16 604.934 1131.81 602.165 1137.55 597.655C1143.29 593.151 1147.43 587.446 1149.21 581.594L1371.84 -152.005C1373.38 -157.075 1372.96 -161.863 1370.66 -165.479ZM305.829 666.161C303.281 662.144 302.81 656.836 304.523 651.214L527.16 -82.3853C529.129 -88.8744 533.721 -95.2066 540.088 -100.209C546.455 -105.21 553.833 -108.28 560.864 -108.86L1355.49 -174.354C1363.38 -175.006 1369.81 -172.385 1373.13 -167.166C1375.68 -163.15 1376.14 -157.844 1374.44 -152.219L1151.8 581.381C1149.83 587.868 1145.24 594.2 1138.87 599.2C1132.51 604.199 1125.13 607.275 1118.1 607.85L323.467 673.344C315.573 673.999 309.146 671.376 305.829 666.161Z" fill="#2B437B"/>
<path fill-rule="evenodd" clip-rule="evenodd" d="M1331.88 -145.116C1329.06 -149.558 1323.61 -151.859 1316.92 -151.428L549.874 -101.921C543.766 -101.528 537.302 -98.9439 531.684 -94.6495C526.063 -90.3535 521.948 -84.8577 520.105 -79.1742L288.759 634.159C287.113 639.233 287.473 644.02 289.772 647.64C292.596 652.083 298.047 654.383 304.727 653.955L1071.78 604.445C1084.38 603.635 1097.74 593.431 1101.55 581.703L1332.9 -131.635C1334.54 -136.709 1334.18 -141.495 1331.88 -145.116ZM287.307 649.332C284.751 645.303 284.35 639.974 286.179 634.33L517.527 -79.0056C519.577 -85.3283 524.15 -91.4419 530.407 -96.2223C536.665 -101.003 543.854 -103.879 550.654 -104.317L1317.7 -153.822C1325.14 -154.304 1331.2 -151.743 1334.35 -146.8C1336.9 -142.772 1337.31 -137.447 1335.48 -131.797L1104.13 581.542C1099.89 594.592 1085.03 605.947 1071 606.848L303.951 656.355C296.516 656.835 290.448 654.272 287.307 649.332Z" fill="#2B437B"/>
<path fill-rule="evenodd" clip-rule="evenodd" d="M1293.11 -124.75C1290.45 -128.932 1285.34 -131.173 1279.08 -130.889L539.614 -97.3774C527.476 -96.8254 514.395 -87.1208 510.456 -75.7454L270.399 617.328C268.637 622.404 268.936 627.2 271.235 630.816C273.894 635.005 279.007 637.24 285.263 636.956L1024.73 603.447C1036.87 602.891 1049.95 593.187 1053.89 581.816L1293.94 -111.256C1295.7 -116.335 1295.41 -121.129 1293.11 -124.75ZM268.771 632.502C266.203 628.465 265.873 623.113 267.836 617.442L507.895 -75.6325C512.294 -88.3315 526.894 -99.1619 540.444 -99.7751L1279.91 -133.291C1286.9 -133.607 1292.61 -131.109 1295.57 -126.436C1298.14 -122.397 1298.48 -117.044 1296.51 -111.372L1056.45 581.701C1052.05 594.399 1037.45 605.233 1023.9 605.847L284.433 639.355C277.448 639.674 271.74 637.176 268.771 632.502Z" fill="#2B437B"/>
<path fill-rule="evenodd" clip-rule="evenodd" d="M1254.35 -104.394C1251.85 -108.327 1247.08 -110.494 1241.25 -110.35L529.353 -92.8287C517.689 -92.5399 504.886 -83.3397 500.81 -72.318L252.042 600.491C250.163 605.578 250.392 610.378 252.693 614.007C255.192 617.935 259.971 620.102 265.802 619.961L977.69 602.447C989.358 602.155 1002.16 592.954 1006.23 581.926L1255 -90.8809C1256.88 -95.968 1256.65 -100.769 1254.35 -104.394ZM250.229 615.695C247.651 611.635 247.396 606.255 249.5 600.556L498.265 -72.2536C502.833 -84.6024 517.176 -94.9075 530.241 -95.2312L1242.14 -112.755C1248.67 -112.917 1254.02 -110.483 1256.82 -106.082C1259.4 -102.019 1259.65 -96.6419 1257.55 -90.9416L1008.78 581.868C1004.22 594.212 989.871 604.524 976.807 604.847L264.914 622.371C258.381 622.529 253.026 620.096 250.229 615.695Z" fill="#2B437B"/>
<path fill-rule="evenodd" clip-rule="evenodd" d="M1215.6 -84.0479C1213.23 -87.7807 1208.9 -89.8322 1203.4 -89.8173L519.088 -88.282C513.674 -88.2729 507.78 -86.2485 502.508 -82.5868C497.231 -78.9219 493.203 -74.0562 491.162 -68.8882L233.689 583.657C231.676 588.757 231.838 593.563 234.145 597.196C236.517 600.929 240.847 602.98 246.342 602.969L930.656 601.433C941.845 601.407 954.368 592.705 958.583 582.036L1216.06 -70.5114C1218.07 -75.6104 1217.91 -80.4152 1215.6 -84.0479ZM231.678 598.884C229.083 594.799 228.903 589.401 231.162 583.672L488.641 -68.88C490.934 -74.6925 495.462 -80.1596 501.397 -84.2806C507.326 -88.3992 513.946 -90.6729 520.043 -90.6895L1204.35 -92.2203C1210.53 -92.236 1215.4 -89.9302 1218.07 -85.7349C1220.66 -81.6504 1220.85 -76.2441 1218.58 -70.5125L961.105 582.036C956.374 594.026 942.288 603.814 929.708 603.845L245.395 605.375C239.217 605.385 234.345 603.086 231.678 598.884Z" fill="#2B437B"/>
<path fill-rule="evenodd" clip-rule="evenodd" d="M1176.87 -63.7043C1174.65 -67.1911 1170.64 -69.1662 1165.56 -69.2787L508.827 -83.736C498.109 -83.9707 485.855 -75.7694 481.509 -65.452L215.325 566.837C213.174 571.944 213.263 576.76 215.577 580.401C217.79 583.883 221.806 585.865 226.884 585.976L883.619 600.434C894.337 600.67 906.587 592.472 910.937 582.147L1177.12 -50.1366C1179.27 -55.2461 1179.18 -60.066 1176.87 -63.7043ZM213.111 582.093C210.504 577.986 210.404 572.546 212.833 566.781L479.013 -65.5058C483.916 -77.1478 497.745 -86.404 509.84 -86.1398L1166.58 -71.6818C1172.3 -71.5558 1176.84 -69.325 1179.33 -65.3923C1181.94 -61.2825 1182.04 -55.8453 1179.62 -50.0819L913.437 582.21C908.528 593.85 894.701 603.109 882.603 602.843L225.874 588.386C220.142 588.258 215.61 586.024 213.111 582.093Z" fill="#2B437B"/>
<path fill-rule="evenodd" clip-rule="evenodd" d="M1138.15 -43.3753C1136.09 -46.6122 1132.39 -48.5188 1127.72 -48.7456L498.564 -79.1919C493.603 -79.4343 488.09 -77.779 483.049 -74.5349C478.004 -71.2891 474.029 -66.8433 471.862 -62.0151L196.969 550.012C194.702 555.055 194.716 560.012 197.002 563.614C199.059 566.851 202.758 568.759 207.429 568.987L836.586 599.435C846.828 599.93 858.81 592.222 863.287 582.255L1138.18 -29.7678C1140.45 -34.8127 1140.44 -39.7739 1138.15 -43.3753ZM194.535 565.304C191.942 561.221 191.93 555.604 194.496 549.893L469.39 -62.1345C471.852 -67.6063 476.348 -72.6423 482.064 -76.3179C487.779 -79.9942 494.021 -81.867 499.642 -81.5952L1128.8 -51.1452C1134.09 -50.8899 1138.28 -48.7287 1140.61 -45.0642C1143.21 -40.9842 1143.22 -35.3647 1140.65 -29.6478L865.755 582.376C860.683 593.669 847.11 602.399 835.507 601.836L206.351 571.384C201.061 571.13 196.865 568.97 194.535 565.304Z" fill="#2B437B"/>
<path fill-rule="evenodd" clip-rule="evenodd" d="M1099.44 -23.0535C1097.54 -26.05 1094.14 -27.88 1089.88 -28.2105L488.297 -74.6458C483.56 -75.0105 478.238 -73.5417 473.309 -70.5051C468.382 -67.4708 464.441 -63.2344 462.21 -58.5799L178.604 533.188C176.18 538.245 176.109 543.219 178.408 546.841C180.311 549.832 183.707 551.663 187.974 551.997L789.548 598.437C799.327 599.192 811.029 591.983 815.64 582.363L1099.24 -9.39615C1101.67 -14.456 1101.74 -19.4363 1099.44 -23.0535ZM175.94 548.527C173.322 544.414 173.408 538.754 176.168 532.996L459.768 -58.7655C462.309 -64.0642 466.793 -68.8826 472.398 -72.3351C478.004 -75.7877 484.058 -77.4607 489.446 -77.0448L1091.02 -30.6066C1095.87 -30.2323 1099.74 -28.1494 1101.91 -24.7411C1104.52 -20.6255 1104.44 -14.9674 1101.68 -9.21223L818.073 582.557C812.84 593.487 799.522 601.69 788.402 600.833L186.824 554.397C181.971 554.016 178.104 551.934 175.94 548.527Z" fill="#2B437B"/>
<path fill-rule="evenodd" clip-rule="evenodd" d="M1060.75 -2.7475C1059 -5.50718 1055.9 -7.2581 1052.03 -7.6815L478.026 -70.1087C468.718 -71.1193 457.291 -64.4058 452.547 -55.1378L160.243 516.358C157.644 521.434 157.48 526.433 159.791 530.069C161.546 532.827 164.645 534.576 168.519 535.004L742.523 597.432C751.827 598.444 763.255 591.728 767.993 582.464L1060.31 10.9617C1062.9 5.88731 1063.06 0.893944 1060.75 -2.7475ZM157.327 531.762C154.685 527.604 154.876 521.895 157.838 516.097L450.148 -55.3969C455.562 -65.9822 468.619 -73.6531 479.251 -72.4969L1053.25 -10.0668C1057.67 -9.58502 1061.22 -7.58785 1063.22 -4.43299C1065.86 -0.276018 1065.67 5.4316 1062.71 11.2298L770.397 582.726C764.982 593.311 751.927 600.978 741.298 599.826L167.297 537.398C162.871 536.913 159.33 534.913 157.327 531.762Z" fill="#2B437B"/>
<path fill-rule="evenodd" clip-rule="evenodd" d="M1022.08 17.5512C1020.45 14.9877 1017.72 13.3611 1014.18 12.8511L467.757 -65.568C458.919 -66.8372 447.765 -60.6146 442.891 -51.696L141.871 499.542C139.093 504.632 138.833 509.651 141.162 513.317C142.793 515.88 145.526 517.503 149.067 518.011L695.488 596.437C704.329 597.709 715.48 591.486 720.354 582.563L1021.38 31.3254C1024.16 26.2376 1024.41 21.2158 1022.08 17.5512ZM138.698 515.004C136.027 510.802 136.324 505.04 139.515 499.201L440.531 -52.0321C446.122 -62.2636 458.917 -69.4032 469.055 -67.9469L1015.48 10.4729C1019.54 11.057 1022.68 12.9185 1024.55 15.8642C1027.22 20.0683 1026.92 25.8277 1023.74 31.6635L722.715 582.907C717.127 593.137 704.33 600.276 694.192 598.82L147.77 520.397C143.706 519.815 140.57 517.951 138.698 515.004Z" fill="#2B437B"/>
<path fill-rule="evenodd" clip-rule="evenodd" d="M983.436 37.8325C981.952 35.4955 979.498 33.9554 976.329 33.382L457.484 -61.0304C449.113 -62.5508 438.233 -56.8206 433.232 -48.2515L123.501 482.722C120.569 487.754 120.197 492.935 122.514 496.578C123.998 498.912 126.455 500.448 129.623 501.023L648.467 595.441C656.836 596.961 667.713 591.23 672.714 582.659L982.447 51.6835C985.379 46.6552 985.748 41.4783 983.436 37.8325ZM120.048 498.263C117.379 494.062 117.807 488.095 121.189 482.3L430.918 -48.6747C436.677 -58.5485 449.216 -65.1532 458.865 -63.3991L977.707 31.0135C981.357 31.6756 984.189 33.4501 985.9 36.1422C988.568 40.3399 988.142 46.3089 984.756 52.1047L675.027 583.079C669.267 592.951 656.73 599.559 647.084 597.805L128.237 503.397C124.592 502.727 121.758 500.956 120.048 498.263Z" fill="#2B437B"/>
<path fill-rule="evenodd" clip-rule="evenodd" d="M944.8 58.0955C943.461 55.985 941.27 54.5364 938.474 53.9048L447.209 -56.4996C439.299 -58.2739 428.692 -53.031 423.566 -44.8106L105.128 465.901C101.979 470.949 101.496 476.165 103.836 479.847C105.177 481.96 107.368 483.407 110.169 484.039L601.434 594.442C609.344 596.217 619.948 590.976 625.07 582.754L943.514 72.04C946.662 66.9913 947.141 61.7804 944.8 58.0955ZM101.373 481.535C98.6643 477.271 99.2207 471.237 102.866 465.396L421.303 -45.3159C427.241 -54.836 439.519 -60.9043 448.671 -58.8454L939.935 51.5554C943.18 52.2842 945.711 53.9618 947.27 56.4099C949.978 60.6736 949.419 66.7071 945.777 72.5513L627.336 583.266C621.401 592.78 609.122 598.852 599.97 596.794L108.703 486.391C105.462 485.662 102.926 483.98 101.373 481.535Z" fill="#2B437B"/>
<path fill-rule="evenodd" clip-rule="evenodd" d="M906.2 78.3478C904.996 76.453 903.066 75.0952 900.614 74.4315L436.928 -51.9627C429.482 -53.9924 419.152 -49.2382 413.894 -41.3591L86.7455 449.087C83.3683 454.153 82.7661 459.404 85.1366 463.135C86.3401 465.031 88.2702 466.388 90.7206 467.055L554.409 593.447C561.855 595.476 572.186 590.723 577.442 582.843L904.59 92.3934C907.969 87.3282 908.572 82.0792 906.2 78.3478ZM82.6734 464.825C79.9578 460.552 80.6754 454.294 84.548 448.49L411.696 -41.9603C417.807 -51.1198 429.825 -56.6523 438.485 -54.2911L902.171 72.1009C905.022 72.8797 907.261 74.4557 908.668 76.6597C911.379 80.9344 910.66 87.1948 906.796 92.9952L579.644 583.448C573.533 592.608 561.516 598.139 552.853 595.777L89.1711 469.383C86.3188 468.605 84.0726 467.03 82.6734 464.825Z" fill="#2B437B"/>
<mask id="mask2_820_10709" style="mask-type:luminance" maskUnits="userSpaceOnUse" x="-52" y="-216" width="1038" height="977">
<path fill-rule="evenodd" clip-rule="evenodd" d="M-51.2361 290.225L642.28 -215.531L985.281 254.807L291.764 760.563L-51.2361 290.225Z" fill="white"/>
</mask>
<g mask="url(#mask2_820_10709)">
<path fill-rule="evenodd" clip-rule="evenodd" d="M867.63 98.5797C866.558 96.8963 864.875 95.6438 862.758 94.9565L426.651 -47.4282C419.67 -49.712 409.609 -45.4411 404.228 -37.9094L68.368 432.281C64.7904 437.289 64.0436 442.715 66.4126 446.444C67.4836 448.13 69.1647 449.386 71.2805 450.076L507.388 592.46C514.374 594.738 524.43 590.471 529.81 582.937L865.673 112.75C869.246 107.743 869.998 102.313 867.63 98.5797ZM63.9463 448.136C61.1774 443.777 62.0551 437.433 66.2311 431.588L402.091 -38.6028C408.378 -47.4019 420.136 -52.3958 428.299 -49.7312L864.409 92.6511C866.877 93.4589 868.845 94.9244 870.097 96.8939C872.865 101.254 871.991 107.596 867.807 113.448L531.947 583.636C525.66 592.44 513.906 597.431 505.743 594.765L69.6309 452.382C67.1641 451.577 65.1978 450.107 63.9463 448.136Z" fill="#2B437B"/>
</g>
</g>
</g>
</svg>
